<svg xmlns="http://www.w3.org/2000/svg" width="128" height="39" fill="none" viewBox="0 0 128 39"><path fill="#9C00AD" d="M20.264 20.076c0 5.769-4.336 9.7-9.002 9.7-2.572 0-4.592-.77-6.062-2.13v10.398H.35V10.891H5.2v1.579c1.47-1.36 3.49-2.13 6.062-2.13 4.667 0 9.002 3.968 9.002 9.736Zm-4.703 0c0-3.38-2.204-5.511-5.144-5.511-2.609 0-5.217 2.13-5.217 5.511 0 3.382 2.61 5.475 5.217 5.475 2.94 0 5.144-2.094 5.144-5.474ZM41.428 29.225h-4.85v-1.653c-1.433 1.432-3.343 2.204-5.768 2.204-4.409 0-7.348-3.159-7.348-7.715v-11.17h4.85v10.14c0 2.572 1.47 4.3 3.71 4.3 2.757 0 4.556-1.837 4.556-6.32v-8.12h4.85v18.334ZM59.284 10.78l-.258 4.667H57.96c-4.483 0-6.539 2.756-6.539 7.863v5.915h-4.85V10.89h4.85v3.343c1.47-2.13 3.601-3.6 6.576-3.6.478 0 .845 0 1.286.146h.001ZM82.248 20.076c0 5.769-4.337 9.7-9.002 9.7-2.572 0-4.593-.77-6.062-2.13v10.398h-4.85V10.891h4.85v1.579c1.47-1.36 3.49-2.13 6.062-2.13 4.667 0 9.002 3.968 9.002 9.736Zm-4.703 0c0-3.38-2.204-5.511-5.144-5.511-2.609 0-5.217 2.13-5.217 5.511 0 3.382 2.61 5.475 5.217 5.475 2.94 0 5.144-2.094 5.144-5.474ZM90.404 23.42c0 1.065.845 1.8 2.095 1.8.589 0 1.506-.22 2.279-.514l.844 4.079c-1.028.477-2.094.991-3.968.991-3.674 0-6.099-2.424-6.099-6.061V.933h4.85V23.42ZM102.492 23.42c0 1.065.845 1.8 2.095 1.8.589 0 1.506-.22 2.279-.514l.845 4.079c-1.029.477-2.095.991-3.969.991-3.674 0-6.099-2.424-6.099-6.061V.933h4.851V23.42h-.002ZM127.22 21.363h-13.962c.478 2.645 2.351 4.262 4.593 4.262 1.432 0 3.233-.183 4.556-2.425l4.336.92c-1.618 3.82-4.888 5.658-8.892 5.658-5.181 0-9.406-3.932-9.406-9.7 0-5.768 4.225-9.737 9.479-9.737 4.886 0 9.112 3.785 9.296 9.37v1.654-.002Zm-13.815-3.417h8.855c-.624-2.351-2.388-3.38-4.335-3.38-1.837 0-3.932 1.102-4.52 3.38Z"/></svg>