<svg xmlns="http://www.w3.org/2000/svg" role="img" pointer-events="none" fill="none" viewBox="0 0 24 24" class="ng-star-inserted pds-icon icon-lg"><path d="M9.34601 10.6843C10.0705 10.6843 10.6579 10.0952 10.6579 9.36853C10.6579 8.64182 10.0705 8.05273 9.34601 8.05273C8.6215 8.05273 8.03418 8.64182 8.03418 9.36853C8.03418 10.0952 8.6215 10.6843 9.34601 10.6843Z" fill="var(--pds-primary-color, currentColor)"/><path d="M14.5941 10.6843C15.3187 10.6843 15.906 10.0952 15.906 9.36853C15.906 8.64182 15.3187 8.05273 14.5941 8.05273C13.8696 8.05273 13.2822 8.64182 13.2822 9.36853C13.2822 10.0952 13.8696 10.6843 14.5941 10.6843Z" fill="var(--pds-primary-color, currentColor)"/><path fill-rule="evenodd" clip-rule="evenodd" d="M18.1163 8.90081C18.1163 8.46478 18.4687 8.11133 18.9034 8.11133H22.0867C22.5215 8.11133 22.8738 8.46478 22.8738 8.90081C22.8738 9.33681 22.5215 9.69027 22.0867 9.69027H18.9034C18.4687 9.69027 18.1163 9.33681 18.1163 8.90081ZM18.1163 11.9865C18.1163 11.5505 18.4687 11.197 18.9034 11.197H21.5656C22.0003 11.197 22.3528 11.5505 22.3528 11.9865C22.3528 12.4225 22.0003 12.776 21.5656 12.776H18.9034C18.4687 12.776 18.1163 12.4225 18.1163 11.9865ZM16.5527 13.1065C16.9579 13.2646 17.1585 13.7221 17.001 14.1285C16.2535 16.0566 14.306 17.395 12.065 17.395C9.82822 17.395 8.00494 16.1397 7.20786 14.3203L7.20338 14.3105L7.19308 14.2874C7.18473 14.2685 7.17197 14.2385 7.15907 14.2021C7.01329 13.7914 7.22712 13.3399 7.63665 13.1937C8.04054 13.0494 8.48395 13.2561 8.63593 13.6558L8.64648 13.6793L8.64815 13.6831C9.18893 14.9195 10.4403 15.816 12.065 15.816C13.6863 15.816 15.0321 14.8505 15.5339 13.5562C15.6914 13.1499 16.1476 12.9485 16.5527 13.1065ZM18.1163 15.0119C18.1163 14.5759 18.4687 14.2225 18.9034 14.2225H20.6961C21.1309 14.2225 21.4832 14.5759 21.4832 15.0119C21.4832 15.4479 21.1309 15.8013 20.6961 15.8013H18.9034C18.4687 15.8013 18.1163 15.4479 18.1163 15.0119Z" fill="var(--pds-primary-color, currentColor)"/><path fill-rule="evenodd" clip-rule="evenodd" d="M18.1163 8.90081C18.1163 8.46478 18.4687 8.11133 18.9034 8.11133H22.0867C22.5215 8.11133 22.8738 8.46478 22.8738 8.90081C22.8738 9.33681 22.5215 9.69027 22.0867 9.69027H18.9034C18.4687 9.69027 18.1163 9.33681 18.1163 8.90081ZM18.1163 11.9865C18.1163 11.5505 18.4687 11.197 18.9034 11.197H21.5656C22.0003 11.197 22.3528 11.5505 22.3528 11.9865C22.3528 12.4225 22.0003 12.776 21.5656 12.776H18.9034C18.4687 12.776 18.1163 12.4225 18.1163 11.9865ZM16.5527 13.1065C16.9579 13.2646 17.1585 13.7221 17.001 14.1285C16.2535 16.0566 14.306 17.395 12.065 17.395C9.82822 17.395 8.00494 16.1397 7.20786 14.3203L7.20338 14.3105L7.19308 14.2874C7.18473 14.2685 7.17197 14.2385 7.15907 14.2021C7.01329 13.7914 7.22712 13.3399 7.63665 13.1937C8.04054 13.0494 8.48395 13.2561 8.63593 13.6558L8.64648 13.6793L8.64815 13.6831C9.18893 14.9195 10.4403 15.816 12.065 15.816C13.6863 15.816 15.0321 14.8505 15.5339 13.5562C15.6914 13.1499 16.1476 12.9485 16.5527 13.1065ZM18.1163 15.0119C18.1163 14.5759 18.4687 14.2225 18.9034 14.2225H20.6961C21.1309 14.2225 21.4832 14.5759 21.4832 15.0119C21.4832 15.4479 21.1309 15.8013 20.6961 15.8013H18.9034C18.4687 15.8013 18.1163 15.4479 18.1163 15.0119Z" fill="var(--pds-primary-color, currentColor)"/><path d="M12.0836 3.57895C7.37483 3.57895 3.57421 7.3583 3.57421 12C3.57421 16.6417 7.37483 20.421 12.0836 20.421C14.7956 20.421 17.2063 19.1674 18.7631 17.2174C18.7631 17.2174 19.2508 16.495 19.8261 16.7826C20.6957 17.2174 20.1571 17.9924 20.1571 17.9924C18.3163 20.4271 15.3823 22 12.0836 22C6.5237 22 2 17.532 2 12C2 6.46803 6.5237 2 12.0836 2C15.3394 2 18.2399 3.53222 20.0848 5.91304C20.0848 5.91304 20.3915 6.41064 19.8261 6.78261C19.2607 7.15457 18.7631 6.78261 18.7631 6.78261C17.2063 4.83259 14.7956 3.57895 12.0836 3.57895Z" fill="var(--pds-primary-color, currentColor)"/></svg>