<svg xmlns="http://www.w3.org/2000/svg" role="img" pointer-events="none" fill="none" viewBox="0 0 24 24" class="ng-star-inserted pds-icon"><path d="M16.487 3.8457H1.487V16.8457H16.487V3.8457Z" fill="none" stroke="var(--pds-primary-color, currentColor)" stroke-width="2" stroke-linecap="round" stroke-linejoin="round"/><path d="M16.487 8.8457H20.487L23.487 11.8457V16.8457H16.487V8.8457Z" fill="none" stroke="var(--pds-primary-color, currentColor)" stroke-width="2" stroke-linecap="round" stroke-linejoin="round"/><path d="M5.987 21.8457C7.36771 21.8457 8.487 20.7264 8.487 19.3457C8.487 17.965 7.36771 16.8457 5.987 16.8457C4.60629 16.8457 3.487 17.965 3.487 19.3457C3.487 20.7264 4.60629 21.8457 5.987 21.8457Z" fill="none" stroke="var(--pds-primary-color, currentColor)" stroke-width="2" stroke-linecap="round" stroke-linejoin="round"/><path d="M18.987 21.8457C20.3677 21.8457 21.487 20.7264 21.487 19.3457C21.487 17.965 20.3677 16.8457 18.987 16.8457C17.6063 16.8457 16.487 17.965 16.487 19.3457C16.487 20.7264 17.6063 21.8457 18.987 21.8457Z" fill="none" stroke="var(--pds-primary-color, currentColor)" stroke-width="2" stroke-linecap="round" stroke-linejoin="round"/></svg>