<svg xmlns="http://www.w3.org/2000/svg" role="img" pointer-events="none" fill="none" viewBox="0 0 24 24" class="fs-6 ng-star-inserted pds-icon"><path d="M5.09203 21.2205C5.11793 21.0631 5.15365 20.9058 5.201 20.7537C5.29175 20.4615 5.38684 20.17 5.49421 19.8838C5.56007 19.7079 5.65961 19.545 5.73007 19.3707C5.83362 19.1146 5.97003 18.8798 6.13992 18.6644C6.65073 18.016 7.3179 17.667 8.13591 17.6435C8.46081 17.6343 8.78847 17.6761 9.11313 17.7105C9.49058 17.7507 9.86772 17.7832 10.2465 17.7839C10.3725 17.784 10.4985 17.7807 10.6249 17.773C10.6657 17.7706 10.7073 17.7822 10.7481 17.7791C10.7478 17.7791 10.7483 17.7791 10.7481 17.7791C10.7487 17.7791 10.7501 17.7791 10.7508 17.7791C10.8056 17.7756 10.86 17.7637 10.9144 17.756C10.9585 17.7497 11.0039 17.7494 11.0467 17.7384C11.1359 17.7152 11.2233 17.6841 11.3126 17.6612C11.5239 17.6076 11.7147 17.5147 11.8765 17.3656C12.129 17.133 12.2623 16.8405 12.2937 16.4995C12.3091 16.3306 12.3021 16.1607 12.2294 16.0054C12.1731 15.8846 12.1019 15.7701 12.0287 15.6587C11.9065 15.4716 11.951 15.2526 12.1174 15.1274C12.1963 15.0678 12.2748 15.0077 12.348 14.9419C12.4408 14.8588 12.5339 14.7679 12.5278 14.6306C12.5188 14.4308 12.4492 14.2614 12.2533 14.172C12.1969 14.1461 12.1419 14.1174 12.0788 14.0862C12.152 14.0523 12.2159 14.027 12.2757 13.9939C12.4298 13.9087 12.5667 13.8045 12.6177 13.6222C12.6678 13.4434 12.6279 13.2861 12.4531 13.2075C12.4196 13.1924 12.3857 13.1781 12.3543 13.1591C12.1861 13.0586 12.1144 12.8972 12.0994 12.7105C12.0862 12.5453 12.0867 12.3783 12.1424 12.2184C12.1527 12.1892 12.1729 12.1549 12.1982 12.1408C12.3698 12.0456 12.5496 11.9644 12.7161 11.8613C12.9411 11.722 13.1477 11.5569 13.2869 11.3228C13.3985 11.1347 13.4113 10.9368 13.2357 10.7731C13.1364 10.6809 13.0349 10.5909 12.9287 10.507C12.4657 10.1408 11.9982 9.7806 11.5386 9.41005L11.3483 9.24226C11.3398 9.21717 11.3364 9.18818 11.3423 9.15186C11.2368 9.17636 11.2315 9.10811 11.2331 9.02747C11.1947 9.03838 11.1648 9.04672 11.1358 9.05478C10.9511 8.87318 10.81 8.66818 10.7865 8.39892C10.7791 8.31404 10.7499 8.2228 10.7723 8.14688C10.7857 8.10068 10.8787 8.07829 10.9361 8.04511C10.9468 8.03877 10.9573 8.03231 10.9684 8.02645C11.3968 7.79718 11.7934 7.52358 12.1234 7.16054C12.2109 7.06412 12.2872 6.95729 12.369 6.85529C12.3637 6.85023 12.3579 6.84527 12.3525 6.84022C12.3521 6.84073 12.3516 6.8412 12.3512 6.84159C12.3506 6.8412 12.3502 6.84073 12.3497 6.84022C12.0585 7.18394 11.7004 7.43527 11.2995 7.62928C11.5435 7.38205 11.763 7.11801 11.9124 6.79992C11.9098 6.80394 11.9068 6.80755 11.9038 6.81154C11.9058 6.80763 11.908 6.80382 11.9098 6.79992C11.6109 7.23218 11.2154 7.55063 10.7571 7.82712C10.7672 7.62587 10.771 7.44615 10.7864 7.26752C10.8296 6.7717 10.8032 6.28349 10.6104 5.81974C10.4709 5.48452 10.3261 5.1502 10.1572 4.82965C9.87296 4.29039 9.5233 3.79305 9.14065 3.3204C8.86369 2.97852 8.57396 2.64803 8.24903 2.35135C8.11951 2.23314 7.98819 2.11708 7.85788 2H15.1299C15.3117 2.12541 15.476 2.2687 15.6111 2.44655C15.7899 2.68223 15.9169 2.93755 15.9144 3.24081C15.9131 3.37302 15.8874 3.50478 15.8776 3.63704C15.8751 3.67316 15.8799 3.71789 15.8992 3.74637C16.0806 4.01523 16.2709 4.27803 16.4485 4.54944C16.6235 4.81677 16.7656 5.10312 16.8878 5.39899C16.907 5.44571 16.9124 5.49815 16.93 5.54573C16.9609 5.62794 17 5.70693 17.0289 5.78982C17.0667 5.89816 17.1006 6.00801 17.1314 6.11863C17.1822 6.30132 17.2328 6.48445 17.2771 6.66902C17.3289 6.88522 17.3685 7.1045 17.4227 7.32007C17.5009 7.62971 17.6448 7.91184 17.7942 8.19126C17.8947 8.37897 18.0036 8.56343 18.0511 8.77457C18.0965 8.97507 18.0953 9.12956 17.8767 9.24429C17.8336 9.26683 17.7955 9.30239 17.7615 9.33788C17.6899 9.41224 17.6614 9.49793 17.7099 9.59833C17.7504 9.68126 17.7844 9.76761 17.8293 9.84779C18.1089 10.349 18.427 10.8244 18.7762 11.279C19.0057 11.5778 19.2349 11.8784 19.4036 12.218C19.4746 12.3612 19.5457 12.4107 19.3714 12.5634C19.3638 12.5698 19.3586 12.5785 19.3512 12.5854C19.2695 12.6604 19.1965 12.7507 19.1036 12.8075C18.8035 12.9902 18.4745 13.1035 18.1334 13.1799C18.0043 13.2086 17.8973 13.2657 17.8718 13.4097C17.8605 13.4728 17.8585 13.5411 17.8699 13.6041C17.9111 13.8297 17.9966 14.0395 18.1176 14.2335C18.165 14.3095 18.2244 14.3791 18.2606 14.4596C18.3219 14.5977 18.2733 14.7265 18.1922 14.8402C18.1342 14.9215 18.0635 14.9932 18.011 15.0544C18.0646 15.1803 18.1242 15.2959 18.1626 15.4179C18.1974 15.5292 18.1826 15.6447 18.0947 15.7318C17.9989 15.8273 17.8963 15.9169 17.7942 16.0061C17.6607 16.123 17.519 16.2313 17.3912 16.3541C17.2715 16.4695 17.2085 16.6094 17.2852 16.7803C17.3798 16.9909 17.4645 17.2066 17.5686 17.4122C17.6826 17.637 17.7263 17.8662 17.6866 18.1164C17.6362 18.4344 17.4764 18.6735 17.2071 18.841C17.0992 18.9078 16.987 18.9592 16.8598 18.9827C16.7293 19.0064 16.6033 19.0568 16.4725 19.0794C16.3261 19.1046 16.1768 19.1166 16.0283 19.1256C15.5754 19.1519 15.1234 19.1295 14.6723 19.0887C14.2987 19.0551 13.9257 19.015 13.5528 18.9751C13.5528 18.9751 6.19072 17.9049 6.21744 21.92H5C5.00014 21.9177 5.00023 21.9156 5.0005 21.9133C5.02421 21.6816 5.05395 21.4502 5.09203 21.2205ZM14.8702 2.43188C14.9284 2.55283 14.9773 2.67918 15.0448 2.79426C15.0851 2.8627 15.1546 2.91349 15.2098 2.97328C15.4037 3.18454 15.5975 3.39601 15.7907 3.60797C15.7986 3.61653 15.8013 3.62977 15.8173 3.63473C15.8709 3.35495 15.8373 3.09474 15.7002 2.83777C15.7134 2.99597 15.7253 3.14173 15.7373 3.28749C15.7266 3.29109 15.716 3.29469 15.7052 3.29841C15.6791 2.91345 15.4789 2.64674 15.161 2.44972C15.1988 2.58789 15.3325 2.68333 15.2816 2.85546C15.1593 2.61751 14.9979 2.432 14.7918 2.28142C14.818 2.33151 14.846 2.38093 14.8702 2.43188Z" fill="var(--pds-primary-color, currentColor)"/></svg>