<svg xmlns="http://www.w3.org/2000/svg" role="img" pointer-events="none" fill="none" viewBox="0 0 24 24" class="fs-6 ng-star-inserted pds-icon"><path fill-rule="evenodd" clip-rule="evenodd" fill="var(--pds-primary-color, currentColor)" d="M7.50156 4.65746C7.50156 3.9177 8.05319 3.39535 8.64202 3.39535C9.52166 3.39535 10.1696 4.05109 10.6433 4.95852C10.8086 5.27517 10.9372 5.5954 11.0339 5.87601H8.62427C8.02411 5.87601 7.50156 5.38524 7.50156 4.65746ZM15.2558 5.87601H12.8701C12.967 5.59545 13.0957 5.27532 13.2611 4.95875C13.7352 4.05125 14.3836 3.39535 15.2634 3.39535C15.8522 3.39535 16.4039 3.91771 16.4039 4.65746C16.4039 5.37244 15.8683 5.87601 15.2558 5.87601ZM11.9518 7.27136H15.2558H20.1879C20.4072 7.27136 20.6047 7.45533 20.6047 7.7068V20.1692C20.6047 20.4207 20.4072 20.6047 20.1879 20.6047H3.81209C3.59283 20.6047 3.39535 20.4207 3.39535 20.1692V7.7068C3.39535 7.45532 3.59283 7.27136 3.81209 7.27136H8.62427H11.9518ZM3.81209 5.87601H6.38971C6.20777 5.51151 6.10621 5.09658 6.10621 4.65746C6.10621 3.23313 7.19923 2 8.64202 2C10.3354 2 11.3423 3.28227 11.8803 4.31284C11.905 4.36014 11.9289 4.4074 11.9522 4.45451C11.9756 4.40732 11.9996 4.35999 12.0243 4.31261C12.5627 3.28211 13.5701 2 15.2634 2C16.7062 2 17.7992 3.23313 17.7992 4.65746C17.7992 5.0982 17.6952 5.51264 17.5105 5.87601H20.1879C21.1996 5.87601 22 6.70667 22 7.7068V20.1692C22 21.1693 21.1996 22 20.1879 22H3.81209C2.8004 22 2 21.1693 2 20.1692V7.7068C2 6.70667 2.8004 5.87601 3.81209 5.87601ZM13.7699 14.6705C14.1734 14.1362 14.3256 13.4909 14.3256 12.8072C14.3256 12.1139 14.1458 11.4494 13.7699 10.9439C13.359 10.4115 12.7226 10.1395 12.0587 10.1395C11.5213 10.1395 11.0188 10.3368 10.6336 10.6643V10.2812H9.67442V17.5814H10.7583V15.0535C11.1252 15.3351 11.591 15.4748 12.0935 15.4748C12.7391 15.4748 13.3664 15.1857 13.7699 14.6705ZM12.8914 11.6371C13.0876 11.9282 13.1775 12.3495 13.1775 12.8072H13.1793C13.1793 13.2572 13.1078 13.6881 12.9097 13.9773C12.6859 14.3239 12.3173 14.4637 11.9321 14.4637C11.547 14.4637 11.215 14.3335 10.9821 14.052C10.74 13.7609 10.6318 13.284 10.6318 12.8072C10.6318 12.3303 10.74 11.8612 10.9821 11.5528C11.1985 11.2809 11.5305 11.1507 11.8973 11.1507C12.3173 11.1507 12.6676 11.2905 12.8914 11.6371Z"/></svg>