<svg xmlns="http://www.w3.org/2000/svg" role="img" pointer-events="none" fill="none" viewBox="0 0 24 24" class="ng-star-inserted pds-icon icon-xl"><path fill="var(--pds-primary-color, currentColor)" d="M16.5137 2V2.00006C17.6754 2.0025 18.8082 2.34972 19.7813 2.99354L19.7891 2.99873L19.7968 3.00413C22.9002 5.1792 23.8945 9.43486 22.1335 12.8395C21.7652 13.5606 21.1271 14.37 20.3869 15.18C19.6376 15.9998 18.749 16.8572 17.847 17.6758C16.0424 19.3133 14.1542 20.8218 13.1514 21.6023L13.1511 21.602C12.4705 22.1337 11.5267 22.1327 10.8471 21.599C9.84751 20.8196 7.9611 19.3122 6.15694 17.6753C5.25476 16.8567 4.36577 15.9992 3.61589 15.1792C2.87484 14.3688 2.23593 13.5591 1.86661 12.8376C0.105404 9.43488 1.09986 5.17914 4.2032 3.00413L4.2109 2.99873L4.21875 2.99354C5.1922 2.34947 6.32251 2.00495 7.4786 2.00006L7.48836 2.00002L7.48836 2.00009C9.21203 2.01661 10.8324 2.75889 11.9999 4.02194C13.1655 2.76079 14.7835 2.01868 16.5046 2.0001L16.5137 2ZM12.2899 20.5096L12.2854 20.5039C13.2753 19.7334 15.1326 18.2492 16.9 16.6454C17.7839 15.8433 18.638 15.018 19.3473 14.2419C20.0649 13.4567 20.6007 12.7578 20.882 12.2066L20.8838 12.203C22.3356 9.39781 21.5008 5.91189 18.9951 4.14981C18.2504 3.65919 17.3911 3.39815 16.5153 3.39541C14.9637 3.41367 13.4997 4.19972 12.5793 5.53469L12.0002 6.37461L11.4209 5.53484C10.4985 4.19781 9.03284 3.41192 7.47969 3.39542C6.60671 3.40006 5.74914 3.65951 5.00487 4.14981C2.49911 5.91197 1.66454 9.39785 3.1161 12.2007L3.11773 12.2039L3.11773 12.2039C3.40005 12.7559 3.93693 13.4554 4.65521 14.2408C5.36519 15.0172 6.21975 15.8427 7.10384 16.6449C8.87159 18.2487 10.7279 19.7324 11.7151 20.5021L11.7174 20.5039C11.8881 20.6382 12.1139 20.6382 12.2847 20.5039L12.2899 20.5096Z"/></svg>