<svg xmlns="http://www.w3.org/2000/svg" role="img" pointer-events="none" fill="none" viewBox="0 0 24 24" class="ng-star-inserted pds-icon"><path fill="var(--pds-primary-color, currentColor)" d="M1 2.69767C1 2.31236 1.31435 2 1.70213 2H22.2979C22.6856 2 23 2.31236 23 2.69767C23 3.08299 22.6856 3.39535 22.2979 3.39535H1.70213C1.31435 3.39535 1 3.08299 1 2.69767ZM7.26827 12C7.26827 11.6147 7.58262 11.3023 7.9704 11.3023H22.2979C22.6856 11.3023 23 11.6147 23 12C23 12.3853 22.6856 12.6977 22.2979 12.6977H7.9704C7.58262 12.6977 7.26827 12.3853 7.26827 12ZM11.7456 21.3023C11.7456 20.917 12.06 20.6047 12.4477 20.6047H22.2979C22.6856 20.6047 23 20.917 23 21.3023C23 21.6876 22.6856 22 22.2979 22H12.4477C12.06 22 11.7456 21.6876 11.7456 21.3023Z"/></svg>