<svg xmlns="http://www.w3.org/2000/svg" role="img" pointer-events="none" fill="none" viewBox="0 0 24 24" class="ng-star-inserted pds-icon icon-xl"><path fill-rule="evenodd" clip-rule="evenodd" d="M12.2382 2.25189C12.1052 2.09229 11.9082 2.00001 11.7004 2C11.4927 1.99999 11.2957 2.09226 11.1627 2.25185L6.16226 8.25185C6.13619 8.28313 6.11332 8.31601 6.09359 8.3501H2.7C2.3134 8.3501 2 8.6635 2 9.0501C2 9.4367 2.3134 9.7501 2.7 9.7501H20.7C21.0866 9.7501 21.4 9.4367 21.4 9.0501C21.4 8.6635 21.0866 8.3501 20.7 8.3501H17.3064C17.2867 8.31603 17.2638 8.28316 17.2378 8.25189L12.2382 2.25189ZM15.4973 8.3501L11.7003 3.79344L7.90283 8.3501H15.4973ZM3 12.9C3 12.5134 3.3134 12.2 3.7 12.2H19.7C20.0866 12.2 20.4 12.5134 20.4 12.9C20.4 13.2866 20.0866 13.6 19.7 13.6H3.7C3.3134 13.6 3 13.2866 3 12.9ZM5.7 16.2C5.3134 16.2 5 16.5134 5 16.9C5 17.2866 5.3134 17.6 5.7 17.6H17.7C18.0866 17.6 18.4 17.2866 18.4 16.9C18.4 16.5134 18.0866 16.2 17.7 16.2H5.7ZM7 20.7C7 20.3134 7.3134 20 7.7 20H15.7C16.0866 20 16.4 20.3134 16.4 20.7C16.4 21.0866 16.0866 21.4 15.7 21.4H7.7C7.3134 21.4 7 21.0866 7 20.7Z" fill="var(--pds-primary-color, currentColor)"/></svg>