<svg xmlns="http://www.w3.org/2000/svg" role="img" pointer-events="none" fill="none" viewBox="0 0 24 24" class="fs-6 ng-star-inserted pds-icon"><path fill="var(--pds-primary-color, currentColor)" d="M16.0004 2.18391C16.2654 1.92999 16.685 1.94028 16.9374 2.2069L20.8172 6.30447C21.0696 6.57109 21.0594 6.99308 20.7943 7.247C20.5292 7.50093 20.1097 7.49063 19.8573 7.22401L15.9775 3.12644C15.7251 2.85982 15.7353 2.43783 16.0004 2.18391ZM14.4161 3.31775C14.6795 3.17341 15.0064 3.22491 15.2132 3.44335L19.619 8.09602C19.7508 8.219 19.8311 8.39421 19.8311 8.58483V8.58666C19.8311 8.70407 19.8005 8.81638 19.7455 8.9143L14.7103 19.0297C14.567 19.3176 14.2396 19.4614 13.9322 19.3713C13.7648 19.3222 13.4684 19.2966 13.0266 19.322C12.5982 19.3466 12.0841 19.4156 11.5099 19.5197C10.3622 19.7277 9.02274 20.0668 7.73814 20.4303C6.45613 20.793 5.24116 21.1764 4.34585 21.4693C3.89849 21.6157 3.53164 21.7394 3.27697 21.8262C3.14965 21.8697 3.05041 21.9039 2.98321 21.9272L2.90696 21.9538L2.88203 21.9625L2.76958 21.6402C2.76958 21.6402 2.76958 21.6402 2.76958 21.6402L2.88203 21.9625C2.64459 22.0461 2.38031 21.9874 2.20017 21.8108C2.02003 21.6342 1.95483 21.3702 2.03184 21.1293L2.35588 21.2341C2.35588 21.2341 2.35588 21.2341 2.35588 21.2341L2.03184 21.1293L2.04055 21.1019L2.06667 21.0192C2.08958 20.9464 2.12322 20.8389 2.16579 20.7011C2.25095 20.4255 2.37183 20.0289 2.51429 19.5462C2.79939 18.5803 3.17 17.2728 3.51342 15.9026C3.85759 14.5294 4.17084 13.1074 4.34505 11.9085C4.43224 11.3084 4.48239 10.7788 4.487 10.3469C4.4918 9.89653 4.44526 9.62427 4.39095 9.49315C4.26042 9.17805 4.38761 8.81469 4.68561 8.65135L14.4161 3.31775ZM5.02335 19.8524C5.73414 19.6288 6.54193 19.3837 7.37921 19.1468C8.68113 18.7784 10.0668 18.4264 11.2748 18.2075C11.8785 18.0981 12.4498 18.0196 12.951 17.9908C13.2231 17.9752 13.4919 17.9729 13.7436 17.9937L18.3665 8.70654L14.604 4.73324L5.76857 9.5762C5.80446 9.8268 5.81535 10.0941 5.8125 10.3612C5.80702 10.8755 5.74845 11.4698 5.65669 12.1013C5.47299 13.3656 5.14736 14.8377 4.79878 16.2285C4.55831 17.188 4.3052 18.1154 4.07674 18.919L7.59121 15.2896C7.40834 14.9597 7.30492 14.5789 7.30492 14.179C7.30492 12.9819 8.2317 11.9554 9.44203 11.9554C10.6524 11.9554 11.5791 12.9819 11.5791 14.179C11.5791 15.3761 10.6524 16.4026 9.44203 16.4026C9.12305 16.4026 8.82376 16.3313 8.55594 16.2043L5.02335 19.8524ZM9.44203 13.2887C9.02387 13.2887 8.6305 13.6563 8.6305 14.179C8.6305 14.7016 9.02387 15.0692 9.44203 15.0692C9.86019 15.0692 10.2536 14.7016 10.2536 14.179C10.2536 13.6563 9.86019 13.2887 9.44203 13.2887Z"/></svg>