<svg xmlns="http://www.w3.org/2000/svg" role="img" pointer-events="none" fill="none" viewBox="0 0 24 24" class="fs-6 ng-star-inserted pds-icon"><path fill="var(--pds-primary-color, currentColor)" d="M3.39535 12C3.39535 7.24857 7.24857 3.39535 12 3.39535C15.0892 3.39535 17.7976 5.02175 19.3171 7.46962L13.5862 13.1907L10.8364 10.4408C10.5639 10.1683 10.1222 10.1683 9.84969 10.4408C9.57723 10.7132 9.57723 11.155 9.84969 11.4274L13.0925 14.6702C13.3648 14.9425 13.8062 14.9427 14.0787 14.6707L20.4493 8.31102C20.4841 8.29916 20.5184 8.28439 20.552 8.2666C20.8924 8.08608 21.022 7.66378 20.8415 7.32337C19.1626 4.15743 15.835 2 12 2C6.47794 2 2 6.47794 2 12C2 17.5221 6.47794 22 12 22C17.5221 22 22 17.5221 22 12C22 11.6147 21.6876 11.3023 21.3023 11.3023C20.917 11.3023 20.6047 11.6147 20.6047 12C20.6047 16.7514 16.7514 20.6047 12 20.6047C7.24857 20.6047 3.39535 16.7514 3.39535 12Z"/> </svg>