<svg xmlns="http://www.w3.org/2000/svg" role="img" pointer-events="none" fill="none" viewBox="0 0 24 24" class="ng-star-inserted pds-icon icon-lg"><path fill-rule="evenodd" clip-rule="evenodd" d="M3.38269 9.51555C3.38269 6.13545 6.09795 3.39534 9.44739 3.39534C12.7968 3.39534 15.5121 6.13545 15.5121 9.51555C15.5121 11.1139 14.905 12.5691 13.9107 13.6592C13.877 13.6828 13.8449 13.7097 13.8149 13.74C13.7784 13.7768 13.7469 13.8167 13.7203 13.8588C12.624 14.9572 11.1142 15.6358 9.44739 15.6358C6.09795 15.6358 3.38269 12.8957 3.38269 9.51555ZM14.3004 15.2165C12.9969 16.3475 11.3013 17.0311 9.44739 17.0311C5.33431 17.0311 2 13.6663 2 9.51555C2 5.36483 5.33431 2 9.44739 2C13.5605 2 16.8948 5.36483 16.8948 9.51555C16.8948 11.2929 16.2834 12.9262 15.2612 14.2129L21.7975 20.809C22.0675 21.0815 22.0675 21.5232 21.7975 21.7957C21.5275 22.0681 21.0898 22.0681 20.8198 21.7957L14.3004 15.2165Z" fill="var(--pds-primary-color, currentColor)"/></svg>