<svg xmlns="http://www.w3.org/2000/svg" role="img" pointer-events="none" fill="none" viewBox="0 0 24 24" class="fs-6 ng-star-inserted pds-icon"><path fill="none" stroke="var(--pds-primary-color, currentColor)" d="M2 13.872C2.2582 15.2605 2.80428 16.5795 3.60308 17.7442C4.59535 17.1892 5.64888 17.1571 6.24448 17.7527C6.84007 18.3484 6.80778 19.4033 6.25277 20.3949C7.41706 21.194 8.73577 21.7405 10.124 21.9993C10.4337 20.9044 11.1565 20.1373 11.9989 20.1376C12.8399 20.1373 13.5622 20.9062 13.872 22C15.2605 21.7418 16.5795 21.1957 17.7442 20.3969C17.1892 19.4046 17.1571 18.3511 17.7527 17.7555C18.3484 17.1599 19.4033 17.1922 20.3949 17.7472C21.194 16.5829 21.7405 15.2642 21.9993 13.876C20.9044 13.5663 20.1373 12.8435 20.1376 12.0011C20.1373 11.1601 20.9062 10.4378 22 10.128C21.7418 8.73954 21.1957 7.42049 20.3969 6.25579C19.4046 6.81081 18.3511 6.84292 17.7555 6.24726C17.1599 5.65161 17.1922 4.59674 17.7472 3.60512C16.5829 2.80598 15.2642 2.25946 13.876 2.00073C13.5663 3.09557 12.8435 3.86271 12.0011 3.86243C11.1601 3.8627 10.4378 3.09383 10.128 2C8.73954 2.2582 7.42049 2.80428 6.25579 3.60308C6.81081 4.59535 6.84292 5.64888 6.24726 6.24448C5.65161 6.84007 4.59674 6.80778 3.60512 6.25277C2.80598 7.41706 2.25946 8.73577 2.00073 10.124C3.09557 10.4337 3.86271 11.1565 3.86243 11.9989C3.8627 12.8399 3.09383 13.5622 2 13.872Z" stroke-width="1.5"/><path fill="none" stroke="var(--pds-primary-color, currentColor)" d="M16 12C16 14.2091 14.2091 16 12 16C9.79086 16 8 14.2091 8 12C8 9.79086 9.79086 8 12 8C14.2091 8 16 9.79086 16 12Z" stroke-width="1.5"/></svg>