<svg xmlns="http://www.w3.org/2000/svg" role="img" pointer-events="none" fill="none" viewBox="0 0 24 24" class="fs-6 ng-star-inserted pds-icon"><path fill-rule="evenodd" clip-rule="evenodd" d="M3.39535 12C3.39535 7.24778 7.24778 3.39535 12 3.39535C16.7522 3.39535 20.6047 7.24778 20.6047 12C20.6047 16.7522 16.7522 20.6047 12 20.6047C7.24778 20.6047 3.39535 16.7522 3.39535 12ZM12 2C6.47715 2 2 6.47715 2 12C2 17.5228 6.47715 22 12 22C17.5228 22 22 17.5228 22 12C22 6.47715 17.5228 2 12 2ZM10.1395 10.1395C10.1395 10.6533 9.72306 11.0698 9.2093 11.0698C8.69555 11.0698 8.27907 10.6533 8.27907 10.1395C8.27907 9.62578 8.69555 9.2093 9.2093 9.2093C9.72306 9.2093 10.1395 9.62578 10.1395 10.1395ZM14.7907 11.0698C15.3045 11.0698 15.7209 10.6533 15.7209 10.1395C15.7209 9.62578 15.3045 9.2093 14.7907 9.2093C14.2769 9.2093 13.8605 9.62578 13.8605 10.1395C13.8605 10.6533 14.2769 11.0698 14.7907 11.0698ZM16.8373 14.1106C16.9755 13.7509 16.7959 13.3473 16.4362 13.2092C16.0765 13.071 15.6729 13.2506 15.5348 13.6103C15.0164 14.9598 13.6335 15.9535 11.9809 15.9535C10.3251 15.9535 9.03878 15.0301 8.48087 13.7425L8.47942 13.7392L8.47027 13.7187L8.46776 13.713C8.33545 13.3574 7.94199 13.172 7.58254 13.2983C7.21904 13.4261 7.02797 13.8244 7.15578 14.1879C7.16748 14.2212 7.17914 14.2488 7.18701 14.2669L7.19688 14.2892L7.20167 14.2999C7.98237 16.0989 9.77276 17.3488 11.9809 17.3488C14.1932 17.3488 16.1056 16.0158 16.8373 14.1106Z" fill="var(--pds-primary-color, currentColor)"/></svg>