<?xml version="1.0" encoding="UTF-8"?>
<svg width="20px" height="20px" viewBox="0 0 20 20" version="1.1" xmlns="http://www.w3.org/2000/svg" xmlns:xlink="http://www.w3.org/1999/xlink">
    <!-- Generator: Sketch 53.1 (72631) - https://sketchapp.com -->
    <title>Combined Shape</title>
    <desc>Created with Sketch.</desc>
    <g id="Page-1" stroke="none" stroke-width="1" fill="none" fill-rule="evenodd">
        <g id="Home" transform="translate(-973.000000, -26.000000)" fill="#FFFFFF">
            <path d="M987.171069,45.9917481 C985.721854,45.8974914 984.420527,45.3562973 983.44761,44.8930098 C980.894319,43.6587038 978.661126,41.9078572 976.801397,39.6936717 C975.27439,37.856769 974.243899,36.1387251 973.558393,34.2895727 C973.114987,33.0921186 972.942622,32.0998354 973.016566,31.1650596 C973.082146,30.4146455 973.385977,29.7667912 973.919593,29.2337978 L975.377018,27.7822762 C975.795537,27.3804426 976.280045,27.1712225 976.780974,27.1712225 C977.285855,27.1712225 977.761948,27.3804426 978.164251,27.7822762 C978.431238,28.0283481 978.698021,28.3030198 978.956593,28.5652881 C979.087906,28.6966528 979.219373,28.8319642 979.354894,28.9671217 L980.516441,30.1275702 C981.395043,31.0010971 981.395043,32.0876369 980.516441,32.9649567 C980.39339,33.0881207 980.274341,33.2110285 980.155241,33.3299385 C979.830935,33.6621176 979.494366,34.0024461 979.133165,34.3304223 C979.391737,34.9290725 979.757197,35.511475 980.311185,36.2083797 C981.411463,37.5574439 982.561003,38.6071319 983.829439,39.4107992 C983.956698,39.4886545 984.100429,39.5625632 984.256373,39.6404184 C984.379475,39.7019236 984.506735,39.7633775 984.629837,39.8330321 L986.013319,38.4513701 C986.42804,38.0371329 986.912292,37.8199172 987.417223,37.8199172 C987.926363,37.8199172 988.406612,38.0413357 988.808915,38.4595708 L991.148945,40.7966641 C991.994602,41.6413348 991.998605,42.7525279 991.157155,43.6300527 C990.980531,43.8186685 990.791747,43.9990324 990.606913,44.1754496 C990.336128,44.43372 990.081558,44.6797919 989.855622,44.9502608 L989.839407,44.9666622 C989.207216,45.6516246 988.40261,46 987.437852,46 C987.347487,46 987.26128,45.9959509 987.171069,45.9917481 Z M977.577319,39.0500202 C979.342476,41.157443 981.464779,42.8181847 983.895172,43.9868338 C984.785986,44.4090667 985.968214,44.9052083 987.244859,44.9873177 C987.310593,44.9913155 987.380329,44.9955183 987.446062,44.9955183 C988.131619,44.9955183 988.656974,44.7740998 989.10038,44.2983574 C989.358952,43.9908317 989.64236,43.7161599 989.917404,43.4536867 C990.097979,43.2774744 990.270343,43.1133069 990.434549,42.9371459 C990.758854,42.5967661 991.021634,42.0800203 990.446967,41.5060235 L988.098727,39.1607295 C987.946786,39.0047627 987.712896,38.8243988 987.425434,38.8243988 C987.191492,38.8243988 986.953395,38.939311 986.731717,39.1607295 L985.274446,40.6162489 C985.208713,40.6859548 985.003456,40.890972 984.67915,40.890972 C984.547837,40.890972 984.420527,40.858118 984.289265,40.7926662 C984.272845,40.7844655 984.260375,40.7762649 984.243955,40.7680129 C984.116695,40.6901576 983.97317,40.6162489 983.817021,40.5383937 C983.644605,40.4522865 983.468238,40.3620277 983.299876,40.25547 C981.937023,39.3903487 980.705483,38.2710062 979.535468,36.8316831 C978.886857,36.0116144 978.463874,35.3268571 978.164251,34.6050941 C978.160197,34.5928956 978.155989,34.5846949 978.151987,34.5724451 C978.069833,34.3346252 978.020725,34.0146959 978.353241,33.6825168 L978.373715,33.6621176 C978.747334,33.3299385 979.083852,32.9856122 979.445104,32.6205791 C979.564153,32.4976713 979.687409,32.3745585 979.810512,32.2515994 C980.286759,31.7759083 980.286759,31.3086229 979.810512,30.8329318 L978.648708,29.6724833 C978.509185,29.5371207 978.373715,29.3978116 978.242402,29.262449 C977.979622,28.9959779 977.72926,28.7417053 977.470483,28.4998363 C977.248806,28.2824156 977.019072,28.1717063 976.784977,28.1717063 C976.546828,28.1717063 976.304676,28.2824156 976.082999,28.4956335 L974.633989,29.9431573 C974.264373,30.3079341 974.067327,30.734421 974.022221,31.246964 C973.960696,32.0383815 974.108429,32.8706488 974.506679,33.9409922 C975.151133,35.6794353 976.124102,37.3031714 977.577319,39.0500202 Z M983.993593,29.6602848 C985.327761,29.8857012 986.542881,30.5129512 987.515849,31.4807861 C988.480607,32.4444181 989.112798,33.6621176 989.338478,34.9947292 C989.387791,35.2654032 989.203008,35.5276714 988.927964,35.5729289 C988.899331,35.5769268 988.870441,35.5811296 988.841808,35.5811296 C988.599656,35.5811296 988.386189,35.4089664 988.345086,35.1628946 C988.152043,34.0353001 987.618478,33.0060114 986.801453,32.1901455 C985.980426,31.3740746 984.954143,30.8411325 983.825231,30.6483138 C983.554446,30.6032613 983.369612,30.3449909 983.414717,30.0703192 C983.460028,29.799594 983.7186,29.6150273 983.993593,29.6602848 Z M992.495326,35.4089664 C992.253174,35.4089664 992.039707,35.2365982 991.998605,34.9907314 C991.657879,32.9938128 990.713749,31.1732603 989.264534,29.7257365 C987.815524,28.2784178 985.992844,27.335185 983.993593,26.9950615 C983.722603,26.949804 983.537974,26.6915336 983.583079,26.4168106 C983.628184,26.1461366 983.886962,25.9617237 984.161955,26.0067762 C986.370466,26.38001 988.377979,27.4214972 989.97893,29.0163771 C991.575878,30.611462 992.618583,32.6165812 992.992047,34.8225148 C993.041309,35.09324 992.856526,35.3555082 992.581534,35.4007657 C992.552849,35.4047636 992.523959,35.4089664 992.495326,35.4089664 Z" id="Combined-Shape"></path>
        </g>
    </g>
</svg>