<?xml version="1.0" encoding="UTF-8"?>
<svg width="144px" height="32px" viewBox="0 0 144 32" version="1.1" xmlns="http://www.w3.org/2000/svg" xmlns:xlink="http://www.w3.org/1999/xlink">
    <!-- Generator: Sketch 53.1 (72631) - https://sketchapp.com -->
    <title>Colour Logo</title>
    <desc>Created with Sketch.</desc>
    <g id="Page-1" stroke="none" stroke-width="1" fill="none" fill-rule="evenodd">
        <g id="Home" transform="translate(-79.000000, -19.000000)" fill="#FFFFFF">
            <g id="White-Logo" transform="translate(80.000000, 20.000000)">
                <g id="Logo">
                    <path d="M36.3125,21 L36.3125,9.5625 L38.171875,9.5625 L38.171875,13.78125 L43.796875,13.78125 L43.796875,9.5625 L45.65625,9.5625 L45.65625,21 L43.796875,21 L43.796875,15.4453125 L38.171875,15.4453125 L38.171875,21 L36.3125,21 Z M50.8125,21 L50.8125,9.5625 L52.671875,9.5625 L52.671875,21 L50.8125,21 Z M59.703125,14.4375 L60.0390625,14.4375 C61.0234424,14.4375 61.6770817,14.3229178 62,14.09375 C62.3229183,13.8645822 62.484375,13.4583363 62.484375,12.875 C62.484375,12.2447885 62.3111996,11.8007825 61.9648438,11.5429688 C61.6184879,11.285155 60.9765672,11.15625 60.0390625,11.15625 L59.703125,11.15625 L59.703125,14.4375 Z M59.5859375,15.8828125 L59.5859375,21 L57.84375,21 L57.84375,9.5625 L60.4375,9.5625 C61.1979205,9.5625 61.7877583,9.61197867 62.2070312,9.7109375 C62.6263042,9.80989633 62.9843735,9.97395719 63.28125,10.203125 C63.6354184,10.479168 63.9088532,10.8359353 64.1015625,11.2734375 C64.2942718,11.7109397 64.390625,12.1901016 64.390625,12.7109375 C64.390625,13.6276088 64.169273,14.3450495 63.7265625,14.8632812 C63.283852,15.381513 62.6302127,15.6927078 61.765625,15.796875 L65.703125,21 L63.6015625,21 L59.796875,15.8828125 L59.5859375,15.8828125 Z M69.3046875,21 L69.3046875,9.5625 L75.6875,9.5625 L75.6875,11.140625 L71.1640625,11.140625 L71.1640625,14.0078125 L75.6875,14.0078125 L75.6875,15.640625 L71.1640625,15.640625 L71.1640625,19.3359375 L75.6875,19.3359375 L75.6875,21 L69.3046875,21 Z M82.734375,16.5078125 L85.921875,16.5078125 L84.75,13.8984375 C84.6822913,13.73177 84.6119795,13.5403657 84.5390625,13.3242188 C84.4661455,13.1080718 84.3932295,12.8671888 84.3203125,12.6015625 C84.2578122,12.8515638 84.1914066,13.0846343 84.1210938,13.3007812 C84.0507809,13.5169282 83.979167,13.7161449 83.90625,13.8984375 L82.734375,16.5078125 Z M87.875,21 L86.578125,18.0546875 L82.046875,18.0546875 L80.71875,21 L78.765625,21 L84.3046875,9.109375 L89.8359375,21 L87.875,21 Z M96.765625,21.4453125 L91.6640625,9.5625 L93.59375,9.5625 L96.15625,15.65625 C96.3072924,16.0104184 96.4322912,16.3372381 96.53125,16.6367188 C96.6302088,16.9361994 96.708333,17.2213528 96.765625,17.4921875 C96.8333337,17.2057277 96.9192703,16.9088557 97.0234375,16.6015625 C97.1276047,16.2942693 97.2499993,15.9791683 97.390625,15.65625 L99.9453125,9.5625 L101.867188,9.5625 L96.765625,21.4453125 Z M105.554688,21 L105.554688,9.5625 L107.414062,9.5625 L107.414062,21 L105.554688,21 Z M112.585938,21 L112.585938,9.5625 L114.445312,9.5625 L114.445312,19.3359375 L118.601562,19.3359375 L118.601562,21 L112.585938,21 Z M122.609375,21 L122.609375,9.5625 L124.46875,9.5625 L124.46875,19.3359375 L128.625,19.3359375 L128.625,21 L122.609375,21 Z M135.046875,16.5078125 L138.234375,16.5078125 L137.0625,13.8984375 C136.994791,13.73177 136.92448,13.5403657 136.851562,13.3242188 C136.778645,13.1080718 136.70573,12.8671888 136.632812,12.6015625 C136.570312,12.8515638 136.503907,13.0846343 136.433594,13.3007812 C136.363281,13.5169282 136.291667,13.7161449 136.21875,13.8984375 L135.046875,16.5078125 Z M140.1875,21 L138.890625,18.0546875 L134.359375,18.0546875 L133.03125,21 L131.078125,21 L136.617188,9.109375 L142.148438,21 L140.1875,21 Z" id="HIREAVILLA" fill-rule="nonzero"></path>
                    <path d="M17.0833333,28.9864865 L23.9583333,28.9864865 L23.9583333,22.2972973 L17.0833333,22.2972973 L17.0833333,28.9864865 Z M1.04166667,28.9864865 L8.125,28.9864865 L8.125,22.2972973 L1.04166667,22.2972973 L1.04166667,28.9864865 Z M1.93896336,7.81629881 C2.30994462,6.9771466 2.7843682,6.19321323 3.35582349,5.47297297 C3.85336701,5.87540093 4.71696056,6.62716111 5.57086231,7.62396738 C6.32676507,8.5063801 6.92748539,9.40566877 7.35629497,10.2968642 C7.79145826,11.2011976 8.04894505,12.0988894 8.125,12.972973 L1.04166667,12.972973 L1.04166667,12.0695651 C1.04166667,10.5941351 1.34355361,9.16312685 1.93896336,7.81629881 L1.93896336,7.81629881 Z M6.94974047,2.63513514 C7.61563372,2.93838273 9.52789337,3.87309862 11.4139327,5.3946103 C11.5714824,5.52168686 11.7250639,5.64995953 11.875,5.77926518 C11.0567404,6.58666892 10.3692785,7.4310249 9.82176586,8.30238374 C9.36424904,9.03055492 9.00466441,9.77797243 8.74390432,10.5405405 C8.65950949,10.3315311 8.56685555,10.1223405 8.46556276,9.91313173 C7.99272387,8.93647984 7.33586818,7.95714579 6.5132037,7.00229555 C5.60348628,5.94639297 4.69992048,5.16071838 4.16666667,4.73146347 C4.26404824,4.63140789 4.36349933,4.53282026 4.46513387,4.4358093 C5.21042852,3.72440165 6.04273812,3.12167599 6.94974047,2.63513514 L6.94974047,2.63513514 Z M12.4184569,1.01351351 C13.9571222,1.01351351 15.4494618,1.30730945 16.8540134,1.88672495 C16.8610342,1.88962267 16.8679792,1.89261268 16.875,1.89552886 C15.9245277,2.39976966 14.5327686,3.22757727 13.1301473,4.38018831 C12.935723,4.5399507 12.7467489,4.70157722 12.5629409,4.86486486 C12.379133,4.70157722 12.1901777,4.5399507 11.9957535,4.38018831 C10.5298317,3.17556591 9.07579405,2.32572083 8.125,1.82926881 C9.48795682,1.28792977 10.9315674,1.01351351 12.4184569,1.01351351 L12.4184569,1.01351351 Z M20.8333333,4.81178656 C20.2933095,5.26511843 19.4805844,6.00577691 18.6628205,6.96952553 C17.8451321,7.93321927 17.1922157,8.92162358 16.722226,9.90732088 C16.6215625,10.1184673 16.5294668,10.3295954 16.4455805,10.5405405 C16.1863917,9.77090978 15.8289739,9.01656995 15.374214,8.2816547 C14.8300005,7.40222563 14.1466812,6.55004951 13.3333333,5.73516788 C13.482366,5.60466463 13.6350409,5.47520395 13.7916223,5.34695045 C15.5359286,3.91814571 17.3025417,3.00220866 18.0730311,2.63513514 C18.9233115,3.11303124 19.7059545,3.69655541 20.4103728,4.37926936 C20.555782,4.52019823 20.6966808,4.66449257 20.8333333,4.81178656 L20.8333333,4.81178656 Z M17.0833333,21.2837838 L23.9583333,21.2837838 L23.9583333,14.1891892 L17.0833333,14.1891892 L17.0833333,21.2837838 Z M1.04166667,21.2837838 L8.125,21.2837838 L8.125,14.1891892 L1.04166667,14.1891892 L1.04166667,21.2837838 Z M12.7083238,6.48648649 C13.4768278,7.23447168 14.1196982,8.01359137 14.6282057,8.81463322 C15.4723044,10.1442765 15.946355,11.5406958 16.0416667,12.972973 L9.375,12.972973 C9.47029252,11.5406958 9.94434311,10.1442765 10.7884418,8.81463322 C11.2969685,8.01359137 11.9398388,7.23447168 12.7083238,6.48648649 L12.7083238,6.48648649 Z M9.375,28.9864865 L16.0416667,28.9864865 L16.0416667,22.2972973 L9.375,22.2972973 L9.375,28.9864865 Z M9.375,21.2837838 L16.0416667,21.2837838 L16.0416667,14.1891892 L9.375,14.1891892 L9.375,21.2837838 Z M23.75,12.0766541 L23.75,12.972973 L17.0833333,12.972973 C17.1579662,12.1057483 17.4106383,11.2151006 17.8376461,10.3178636 C18.2584376,9.43366136 18.8479254,8.54142939 19.5897125,7.66594096 C20.3357431,6.78542946 21.0891997,6.09773859 21.5900959,5.67567568 C22.1015449,6.35043983 22.5297252,7.07973746 22.8694628,7.85676316 C23.4537579,9.19302266 23.75,10.6128018 23.75,12.0766541 L23.75,12.0766541 Z M24.0174603,7.37909811 C23.3878421,5.94029942 22.4866239,4.64823425 21.3388363,3.5387923 C20.1910299,2.4293686 18.854304,1.55827284 17.3657328,0.949699095 C15.8243064,0.319540447 14.1872311,0 12.5,0 C10.81275,0 9.1756747,0.319540447 7.63424833,0.949699095 C6.145696,1.55827284 4.80895125,2.4293686 3.66116369,3.5387923 C2.51337613,4.64823425 1.61213902,5.94029942 0.982539675,7.37909811 C0.330571274,8.86900356 0,10.451361 0,12.0821978 L0,30 L25,30 L25,12.0821978 C25,10.451361 24.6694287,8.86900356 24.0174603,7.37909811 L24.0174603,7.37909811 Z" id="Monogram" stroke="#FFFFFF" stroke-width="0.5" transform="translate(12.500000, 15.000000) scale(-1, 1) translate(-12.500000, -15.000000) "></path>
                </g>
            </g>
        </g>
    </g>
</svg>