<?xml version="1.0" encoding="UTF-8"?>
<svg width="85px" height="90px" viewBox="0 0 85 90" version="1.1" xmlns="http://www.w3.org/2000/svg" xmlns:xlink="http://www.w3.org/1999/xlink">
    <!-- Generator: Sketch 53.1 (72631) - https://sketchapp.com -->
    <title>Stamp</title>
    <desc>Created with Sketch.</desc>
    <defs>
        <polygon id="path-1" points="0 0 84.9637903 0 84.9637903 89.9306053 0 89.9306053"></polygon>
    </defs>
    <g id="Symbols" stroke="none" stroke-width="1" fill="none" fill-rule="evenodd">
        <g id="Footer" transform="translate(-1115.000000, -50.000000)">
            <g id="Stamp">
                <g transform="translate(1115.000000, 50.000000)">
                    <mask id="mask-2" fill="white">
                        <use xlink:href="#path-1"></use>
                    </mask>
                    <g id="Clip-2"></g>
                    <path d="M48.4626077,61.5667669 L57.3199601,61.5667669 L57.3199601,52.605406 L48.4626077,52.605406 L48.4626077,61.5667669 Z M27.6438437,61.5667669 L36.8774601,61.5667669 L36.8774601,52.605406 L27.6438437,52.605406 L27.6438437,61.5667669 Z M28.8095774,33.1205414 C29.2915152,31.9829549 29.9079346,30.9202105 30.6502951,29.9438797 C31.2967424,30.4894286 32.4186882,31.5085263 33.5280263,32.859812 C34.5100678,34.0559323 35.2904545,35.2749925 35.8475638,36.4830902 C36.4129426,37.7090526 36.7474522,38.9259474 36.8462799,40.1108346 L27.6438437,40.1108346 L27.6438437,38.8862256 C27.6438437,36.8861278 28.0361045,34.9462556 28.8095774,33.1205414 L28.8095774,33.1205414 Z M35.2142663,25.9675714 C36.078433,26.379203 38.5601754,27.6479323 41.007823,29.7131955 C41.2122568,29.8856842 41.4116069,30.059797 41.6062121,30.2353308 C40.5442544,31.3312331 39.6520933,32.4772782 38.9415231,33.6600677 C38.347811,34.6484436 37.8811244,35.6629398 37.5427512,36.6980075 C37.4332137,36.4142707 37.3129665,36.1303985 37.1815351,35.846391 C36.5678947,34.5207519 35.7153868,33.1914586 34.6477352,31.895391 C33.4671571,30.4621579 32.2945096,29.3957594 31.6024442,28.8130602 C31.7288596,28.6772481 31.8579187,28.5433985 31.9898246,28.411782 C32.9570893,27.4461429 34.0372129,26.6280226 35.2142663,25.9675714 L35.2142663,25.9675714 Z M42.4819019,24.0731053 C44.4853668,24.0731053 46.4285048,24.4646391 48.2572927,25.2368797 C48.2665112,25.2407368 48.2755263,25.2447293 48.284677,25.2485865 C47.0470933,25.9206767 45.2349123,27.0239549 43.4085646,28.5601128 C43.1554625,28.7730677 42.9094099,28.9884586 42.6700678,29.2060827 C42.4307257,28.9884586 42.184673,28.7730677 41.9315032,28.5601128 C40.022799,26.954594 38.1295494,25.822015 36.891559,25.1602782 C38.6661882,24.4388571 40.5458812,24.0731053 42.4819019,24.0731053 L42.4819019,24.0731053 Z M53.5262759,28.9934662 C52.8211962,29.6031654 51.7600518,30.5992556 50.6923325,31.895391 C49.624681,33.1914586 48.7722408,34.5207519 48.1586005,35.846391 C48.0271691,36.1303985 47.9069219,36.4142707 47.7973844,36.6980075 C47.4589434,35.6629398 46.9923246,34.6484436 46.3985447,33.6600677 C45.6880423,32.4772782 44.7958134,31.3312331 43.7339234,30.2353308 C43.9284609,30.059797 44.127811,29.8856842 44.3322448,29.7131955 C46.609689,27.791594 48.9162799,26.5597444 49.9222488,26.0660977 C51.0324003,26.7088195 52.0542982,27.4935789 52.9739793,28.411782 C53.1638397,28.6013233 53.3478708,28.7953308 53.5262759,28.9934662 L53.5262759,28.9934662 Z M48.4626077,51.1294737 L57.3199601,51.1294737 L57.3199601,41.5867669 L48.4626077,41.5867669 L48.4626077,51.1294737 Z M27.6438437,51.1294737 L36.8774601,51.1294737 L36.8774601,41.5867669 L27.6438437,41.5867669 L27.6438437,51.1294737 Z M42.6700678,31.2601805 C43.6592265,32.2808346 44.4867903,33.3439173 45.1413038,34.4369098 C46.227799,36.251188 46.8379825,38.1565489 46.9606699,40.1108346 L38.3794657,40.1108346 C38.5020853,38.1565489 39.1122687,36.251188 40.1988317,34.4369098 C40.8533453,33.3439173 41.6808413,32.2808346 42.6700678,31.2601805 L42.6700678,31.2601805 Z M38.355945,61.5668346 L46.9842584,61.5668346 L46.9842584,52.6054737 L38.355945,52.6054737 L38.355945,61.5668346 Z M38.3558772,51.1294737 L46.9841906,51.1294737 L46.9841906,41.5867669 L38.3558772,41.5867669 L38.3558772,51.1294737 Z M57.3199601,38.8862256 L57.3199601,40.1108346 L48.4938557,40.1108346 C48.5926834,38.9259474 48.927193,37.7090526 49.492504,36.4830902 C50.0496132,35.2749925 50.8300678,34.0559323 51.8121093,32.859812 C52.7997767,31.6567218 53.7972727,30.7170677 54.4604625,30.1404586 C55.1375478,31.0623835 55.7044179,32.0588797 56.1542265,33.1205414 C56.9277671,34.9462556 57.3199601,36.8861278 57.3199601,38.8862256 L57.3199601,38.8862256 Z M57.5158533,32.5455564 C56.694051,30.6057519 55.5176754,28.863812 54.0193979,27.3681203 C52.5211882,25.8724286 50.7763158,24.6980301 48.8332456,23.8775414 C46.8211722,23.0279549 44.6843102,22.5971729 42.4819019,22.5971729 C40.2794936,22.5971729 38.1426316,23.0279549 36.1305582,23.8775414 C34.1875558,24.6980301 32.4426834,25.8724286 30.9444059,27.3681203 C29.4461962,28.863812 28.2698206,30.6057519 27.4479506,32.5455564 C26.5969338,34.5542481 26.1654266,36.6875188 26.1654266,38.8862256 L26.1654266,63.0427669 L58.7983772,63.0427669 L58.7983772,38.8862256 C58.7983772,36.6875188 58.36687,34.5542481 57.5158533,32.5455564 L57.5158533,32.5455564 Z" id="Fill-1" fill="#EEF3D3" mask="url(#mask-2)"></path>
                    <polygon id="Fill-3" fill="#EEF3D3" mask="url(#mask-2)" points="11.8847759 15.3466782 13.4577504 13.8050391 12.0572839 12.3809414 12.607547 11.841618 16.1875789 15.4820842 15.637248 16.0214075 13.9655136 14.3214226 12.3925391 15.8630617 14.0643413 17.5630466 13.5140104 18.1023699 9.93397847 14.4619038 10.4843094 13.9225805"></polygon>
                    <polygon id="Fill-4" fill="#EEF3D3" mask="url(#mask-2)" points="17.681986 7.92960226 20.5698848 12.1384895 19.9336726 12.5735346 17.0457739 8.36464737"></polygon>
                    <path d="M24.1947891,6.88644812 L24.4169143,6.78345564 C25.0792907,6.47630526 25.2928752,6.07001955 25.0576679,5.56453083 C24.8373728,5.09104962 24.4050522,5.00375639 23.7607061,5.30258346 L23.5115355,5.41809474 L24.1947891,6.88644812 Z M25.3120578,7.01319248 L27.6644023,8.31954586 L26.8089119,8.71629023 L24.6039278,7.43632782 L24.4778513,7.49479398 L25.3590993,9.38865113 L24.6597133,9.71298947 L22.5067867,5.08617744 L23.3262843,4.70614737 C23.938569,4.42220752 24.4342667,4.33200451 24.8133098,4.43553835 C25.2324805,4.55206466 25.5396734,4.82003459 25.7348888,5.23958346 C25.8873329,5.56723759 25.9243425,5.89252331 25.8459175,6.2154406 C25.7674924,6.53842556 25.5895618,6.80436541 25.3120578,7.01319248 L25.3120578,7.01319248 Z" id="Fill-5" fill="#EEF3D3" mask="url(#mask-2)"></path>
                    <polygon id="Fill-6" fill="#EEF3D3" mask="url(#mask-2)" points="33.3796491 2.01605414 31.3924522 2.51342256 31.6910367 3.70243759 33.6204825 3.21955038 33.7967185 3.92148271 31.8672727 4.40436992 32.2825797 6.05813684 34.2698445 5.56076842 34.4460805 6.26263308 31.7108293 6.94724211 30.4681619 1.99873083 33.2034131 1.3141218"></polygon>
                    <path d="M41.4943429,3.48877895 L40.6569506,1.79089173 L39.9437368,3.56037293 L41.4943429,3.48877895 Z M41.8418668,4.19713985 L39.6564721,4.29796692 L39.1451842,5.5619594 L38.3153158,5.60026015 L40.5904553,0.0673578947 L43.2779195,5.3712 L42.4348333,5.41017744 L41.8418668,4.19713985 Z" id="Fill-7" fill="#EEF3D3" mask="url(#mask-2)"></path>
                    <polygon id="Fill-8" fill="#EEF3D3" mask="url(#mask-2)" points="48.0298804 0.636793985 48.8956738 4.34391429 50.8440311 1.06324511 51.678441 1.18965113 48.586244 6.26883158 47.1954705 0.510320301"></polygon>
                    <polygon id="Fill-9" fill="#EEF3D3" mask="url(#mask-2)" points="57.2696786 2.77210827 55.646138 7.60937143 54.9148939 7.36481504 56.5385024 2.52748421"></polygon>
                    <polygon id="Fill-10" fill="#EEF3D3" mask="url(#mask-2)" points="63.0863832 5.24923985 61.0745809 9.13940526 62.4097723 9.82760075 62.0772285 10.4705256 60.0568178 9.42923233 62.4011639 4.89607444"></polygon>
                    <polygon id="Fill-11" fill="#EEF3D3" mask="url(#mask-2)" points="69.3453317 9.13469549 66.7221938 12.6431391 67.9263604 13.5404323 67.4928198 14.1202895 65.6706746 12.7625752 68.7273533 8.67420677"></polygon>
                    <path d="M74.1230638,17.7934128 L74.9048062,16.0692699 L73.0827967,16.6432398 L74.1230638,17.7934128 Z M73.795807,18.511315 L72.3296587,16.8903 L71.0269354,17.2988865 L70.4702329,16.6833677 L76.1959386,14.9231571 L73.7996029,20.3643677 L73.233953,19.7389692 L73.795807,18.511315 Z" id="Fill-12" fill="#EEF3D3" mask="url(#mask-2)"></path>
                    <polygon id="Fill-13" fill="#EEF3D3" mask="url(#mask-2)" points="74.3594438 73.8234203 72.8355443 75.4134429 74.280002 76.793082 73.7468202 77.3493902 70.0545395 73.8224729 70.5876535 73.2662323 72.3118521 74.9131647 73.8357516 73.3231421 72.1114852 71.6762098 72.6446671 71.1199692 76.3370156 74.6468188 75.8038337 75.2031271"></polygon>
                    <polygon id="Fill-14" fill="#EEF3D3" mask="url(#mask-2)" points="68.7995287 81.4168083 65.7805375 77.3006278 66.4027185 76.8458233 69.4217097 80.9620038"></polygon>
                    <path d="M62.3229625,82.6643233 L62.1042265,82.7742857 C61.4519498,83.1022105 61.2513118,83.5150602 61.5023804,84.0128346 C61.7375877,84.4790752 62.1725518,84.5526992 62.8070694,84.2337068 L63.0523764,84.1103459 L62.3229625,82.6643233 Z M61.2022368,82.5729699 L58.809697,81.3415263 L59.652173,80.917985 L61.8966069,82.1276391 L62.0207855,82.0652481 L61.0799561,80.2001504 L61.7687002,79.8538872 L64.0671571,84.410391 L63.2601994,84.8160677 C62.6571332,85.1192256 62.1645534,85.2250602 61.7823923,85.1335714 C61.3597648,85.0303083 61.0442344,84.7721504 60.8358692,84.3590301 C60.6730542,84.0363835 60.6258094,83.7123835 60.6939314,83.3871654 C60.7620534,83.0618797 60.9315112,82.7904586 61.2022368,82.5729699 L61.2022368,82.5729699 Z" id="Fill-15" fill="#EEF3D3" mask="url(#mask-2)"></path>
                    <polygon id="Fill-16" fill="#EEF3D3" mask="url(#mask-2)" points="53.2960439 87.8234684 55.2664984 87.263506 54.9302943 86.0844383 53.0171164 86.6281602 52.8186475 85.9322504 54.7318254 85.3885286 54.2641898 83.7487015 52.2937352 84.3087316 52.0952663 83.6127541 54.8074035 82.8419346 56.2066499 87.7486263 53.4945128 88.5194459"></polygon>
                    <path d="M45.1396703,86.6063842 L46.0297301,88.2773391 L46.6872939,86.4865421 L45.1396703,86.6063842 Z M44.7701168,85.9092564 L46.951309,85.7402865 L47.422876,84.4610008 L48.2511176,84.3968504 L46.1501128,89.9979632 L43.2981392,84.7804669 L44.1395307,84.7153015 L44.7701168,85.9092564 Z" id="Fill-17" fill="#EEF3D3" mask="url(#mask-2)"></path>
                    <polygon id="Fill-18" fill="#EEF3D3" mask="url(#mask-2)" points="38.69625 89.6598541 37.7140052 85.9817639 35.8700339 89.3221173 35.0320993 89.2219669 37.962498 84.0481173 39.5342524 89.7600045"></polygon>
                    <polygon id="Fill-19" fill="#EEF3D3" mask="url(#mask-2)" points="29.3927424 87.8171278 30.861941 82.9308722 31.6005056 83.152218 30.131307 88.0384737"></polygon>
                    <polygon id="Fill-20" fill="#EEF3D3" mask="url(#mask-2)" points="23.5017544 85.5255586 25.389378 81.573882 24.0331061 80.9281827 24.3450439 80.2750398 26.3974482 81.252115 24.197819 85.8569346"></polygon>
                    <polygon id="Fill-21" fill="#EEF3D3" mask="url(#mask-2)" points="17.1234872 81.8390774 19.6349187 78.2500398 18.4030965 77.3909797 18.8182002 76.7977917 20.6821675 78.0977165 17.7557002 82.2799421"></polygon>
                    <path d="M12.0751854,73.3330827 L11.3479406,75.0808421 L13.1510387,74.4501654 L12.0751854,73.3330827 Z M12.3798026,72.6053008 L13.8960427,74.1796917 L15.1852771,73.7306391 L15.7610267,74.3284286 L10.0932755,76.2666767 L12.3179167,70.7532632 L12.9028848,71.3606617 L12.3798026,72.6053008 Z" id="Fill-22" fill="#EEF3D3" mask="url(#mask-2)"></path>
                    <path d="M79.8248014,65.1963248 L78.87211,64.6789263 C80.4866356,61.7158286 81.731811,58.5603474 82.573067,55.300182 C83.4398094,51.9410842 83.879315,48.462212 83.879315,44.959994 C83.879315,41.3620241 83.4156786,37.7909865 82.5012847,34.3462195 C81.6142751,31.0045805 80.3030112,27.7783173 78.6038923,24.7570917 L79.5495343,24.2270391 C81.2934577,27.3278436 82.6392233,30.6390992 83.549618,34.0689113 C84.4880072,37.6041519 84.9638445,41.2684376 84.9638445,44.959994 C84.9638445,48.5532271 84.5128158,52.1230466 83.6232982,55.5703173 C82.7598772,58.9164902 81.481827,62.1551368 79.8248014,65.1963248" id="Fill-23" fill="#EEF3D3" mask="url(#mask-2)"></path>
                    <path d="M5.13898884,65.1963248 C3.48196332,62.1551368 2.20398086,58.9164902 1.34049203,55.5703173 C0.451042265,52.1230466 1.35566188e-05,48.5532271 1.35566188e-05,44.959994 C1.35566188e-05,41.2684376 0.475783094,37.6041519 1.41417225,34.0689113 C2.32456699,30.6390992 3.67033254,27.3278436 5.41425598,24.2270391 L6.35989793,24.7570917 C4.66077911,27.7783173 3.34951515,31.0045805 2.46250558,34.3462195 C1.54817943,37.7909865 1.08454306,41.3620241 1.08454306,44.959994 C1.08454306,48.462212 1.52398086,51.9411519 2.39079107,55.300182 C3.23197927,58.5603474 4.4771547,61.7158286 6.09168022,64.6789263 L5.13898884,65.1963248 Z" id="Fill-24" fill="#EEF3D3" mask="url(#mask-2)"></path>
                </g>
            </g>
        </g>
    </g>
</svg>